<?xml version="1.0"?>
<svg xmlns="http://www.w3.org/2000/svg" xmlns:xlink="http://www.w3.org/1999/xlink" xmlns:svgjs="http://svgjs.com/svgjs" version="1.1" width="512" height="512" x="0" y="0" viewBox="0 0 64 64" style="enable-background:new 0 0 512 512" xml:space="preserve" class=""><g><path xmlns="http://www.w3.org/2000/svg" d="m32 41c-5.539 0-10-3.282-10-6 0-1.03.727-2.073 2-2.936v-1.927-.378-1.711c-5.763 1.572-9.754 4.672-10.783 6.454l-.289.498.289.5c1.157 2.003 7.759 7.5 18.783 7.5s17.626-5.497 18.783-7.5l.289-.5-.289-.5c-.294-.509-.805-1.09-1.468-1.686-.758.11-1.526.186-2.315.186-.264 0-.521-.027-.782-.039 1.221.811 2.024 1.543 2.463 2.045-.951 1.111-3.226 2.874-6.667 4.201 1.238-1.249 1.986-2.702 1.986-4.207 0-.862-.272-1.69-.76-2.463-1.133-.273-2.216-.667-3.24-1.167v.693c1.273.863 2 1.907 2 2.936 0 2.719-4.461 6.001-10 6.001zm-16.685-5.998c.989-1.148 3.503-3.066 7.367-4.43-1.713 1.225-2.682 2.768-2.682 4.428 0 1.505.748 2.958 1.986 4.207-3.445-1.329-5.722-3.094-6.671-4.205z" fill="#17aebf" data-original="#000000" style="" class=""/><path xmlns="http://www.w3.org/2000/svg" d="m38 30.227c-.713-.486-1.376-1.036-2-1.628v3.401h-2v-5.697c-1.881-2.623-3-5.829-3-9.303 0-3.338 1.025-6.435 2.773-9h-3.773v9h-2v-9h-2v31.221l12 .019zm-10-11.227h2v6h-2zm4 17h-2v-9h2zm4 2h-2v-4h2z" fill="#17aebf" data-original="#000000" style="" class=""/><path xmlns="http://www.w3.org/2000/svg" d="m30 56.956v2.044h-2v-2.17c-.671-.056-1.337-.128-2-.212v5.382h2v-1h2v1h8v-5.388c-1.952.25-3.957.388-6 .388-.67 0-1.336-.016-2-.044z" fill="#17aebf" data-original="#000000" style="" class=""/><path xmlns="http://www.w3.org/2000/svg" d="m57 35c0-1.423-.547-2.932-1.577-4.415-.568.353-1.157.672-1.77.953.881 1.207 1.347 2.393 1.347 3.462 0 1.703-1.195 3.691-3.29 5.541-.486-.339-1.074-.541-1.71-.541-1.654 0-3 1.346-3 3 0 .208.022.411.062.607-4.346 2.184-9.648 3.393-15.062 3.393-8.716 0-15.494-3.016-19.182-6.006.11-.313.182-.644.182-.994 0-1.654-1.346-3-3-3-.17 0-.335.023-.498.05-.333-.716-.502-1.403-.502-2.05 0-2.438 2.346-5.325 6.167-7.642.509.396 1.14.642 1.833.642 1.622 0 2.94-1.296 2.991-2.906 1.305-.478 2.642-.892 4.009-1.204v-2.045c-1.576.339-3.117.803-4.62 1.35-.548-.722-1.406-1.195-2.38-1.195-1.654 0-3 1.346-3 3 0 .234.033.458.084.677-4.451 2.711-7.084 6.154-7.084 9.323 0 .982.263 1.996.761 3.024-.468.529-.761 1.216-.761 1.976 0 1.654 1.346 3 3 3 .575 0 1.107-.17 1.563-.452 4.953 4.05 12.508 6.452 20.437 6.452 5.785 0 11.466-1.313 16.116-3.685.517.422 1.167.685 1.884.685 1.654 0 3-1.346 3-3 0-.288-.054-.56-.129-.824 2.659-2.294 4.129-4.82 4.129-7.176z" fill="#17aebf" data-original="#000000" style="" class=""/><path xmlns="http://www.w3.org/2000/svg" d="m59.876 26.469c-.406.551-.842 1.077-1.313 1.571 1.598 2.234 2.437 4.62 2.437 6.96 0 9.589-13.552 18-29 18-4.172 0-8.212-.584-12.028-1.725.009-.092.028-.181.028-.275 0-1.654-1.346-3-3-3-.98 0-1.844.479-2.392 1.209-7.18-3.473-11.608-8.853-11.608-14.209 0-7.694 8.953-14.965 21-17.244v-2.046c-13.377 2.396-23 10.416-23 19.29 0 6.3 4.856 12.292 13.014 16.14.075 1.588 1.38 2.86 2.986 2.86.832 0 1.585-.341 2.129-.89 4.082 1.249 8.406 1.89 12.871 1.89 16.804 0 31-9.159 31-20 0-2.91-1.086-5.842-3.124-8.531z" fill="#17aebf" data-original="#000000" style="" class=""/><path xmlns="http://www.w3.org/2000/svg" d="m47 8c0 .552.448 1 1 1h5c1.654 0 3 1.346 3 3 0 .552.448 1 1 1h3.41c-.689-2.305-1.954-4.36-3.631-6h-8.779c-.552 0-1 .448-1 1z" fill="#17aebf" data-original="#000000" style="" class=""/><path xmlns="http://www.w3.org/2000/svg" d="m60.84 19h-9.84c-.552 0-1 .448-1 1s.448 1 1 1h2c1.654 0 3 1.346 3 3s-1.346 3-3 3h-10c-.552 0-1 .448-1 1v2.061c1.555.598 3.237.939 5 .939 7.039 0 12.865-5.227 13.84-12z" fill="#17aebf" data-original="#000000" style="" class=""/><path xmlns="http://www.w3.org/2000/svg" d="m33.59 21h9.41c.552 0 1-.448 1-1s-.448-1-1-1h-5c-1.654 0-3-1.346-3-3s1.346-3 3-3h2c.552 0 1-.448 1-1s-.448-1-1-1h-5.63c-.869 1.822-1.37 3.851-1.37 6 0 1.39.21 2.731.59 4z" fill="#17aebf" data-original="#000000" style="" class=""/><path xmlns="http://www.w3.org/2000/svg" d="m43 12c0 1.654-1.346 3-3 3h-2c-.552 0-1 .448-1 1s.448 1 1 1h5c1.654 0 3 1.346 3 3s-1.346 3-3 3h-8.63c1.221 2.559 3.189 4.689 5.63 6.106v-1.106c0-1.654 1.346-3 3-3h10c.552 0 1-.448 1-1s-.448-1-1-1h-2c-1.654 0-3-1.346-3-3s1.346-3 3-3h10c0-.681-.065-1.345-.16-2h-3.84c-1.654 0-3-1.346-3-3 0-.552-.448-1-1-1h-5c-1.654 0-3-1.346-3-3s1.346-3 3-3h6.174c-2.101-1.261-4.55-2-7.174-2-4.745 0-8.94 2.378-11.473 6h4.473c1.654 0 3 1.346 3 3z" fill="#17aebf" data-original="#000000" style="" class=""/></g></svg>
